<?xml version="1.0" encoding="iso-8859-1"?>
<!-- Uploaded to: SVG Repo, www.svgrepo.com, Generator: SVG Repo Mixer Tools -->
<svg fill="#000000" height="800px" width="800px" version="1.1" id="Layer_1" xmlns="http://www.w3.org/2000/svg" xmlns:xlink="http://www.w3.org/1999/xlink" 
	 viewBox="0 0 511.999 511.999" xml:space="preserve">
<g>
	<g>
		<path d="M484.6,181.218h-54.584L406.362,66.773c-7.747-37.485-41.149-64.69-79.427-64.69H185.064
			c-38.276,0-71.68,27.206-79.427,64.69L81.985,181.218H27.401C12.292,181.218,0,193.509,0,208.618s12.292,27.401,27.401,27.401
			h44.473l2.615,9.045v66.154v68.321c0,0.006,0.001,0.012,0.001,0.018c0,0-0.001,0.01-0.001,0.015
			c0,28.616,9.105,55.78,26.33,78.555c0.054,0.071,0.116,0.137,0.172,0.207c24.898,32.784,62.73,51.583,103.843,51.583h102.33
			c41.112,0,78.945-18.8,103.843-51.583c0.057-0.07,0.118-0.135,0.172-0.207c17.226-22.776,26.329-49.939,26.329-78.589v-68.321
			v-66.15l2.615-9.048h44.474c15.109,0,27.401-12.291,27.401-27.401S499.709,181.218,484.6,181.218z M123.714,70.507
			c5.983-28.952,31.785-49.966,61.349-49.966h141.872c29.565,0,55.366,21.015,61.349,49.968l22.776,110.196H100.938L123.714,70.507z
			 M307.165,491.458h-102.33c-26.663,0-51.722-9.213-71.6-25.858c1.151,0.964,5.642,0.736,7.228,0.929
			c3.256,0.398,6.522,0.724,9.784,1.058c6.475,0.665,12.956,1.268,19.442,1.809c12.973,1.084,25.965,1.922,38.969,2.517
			c26.008,1.188,52.06,1.396,78.084,0.625c30.756-1.139,61.486-3.005,92.024-6.938C358.888,482.245,333.828,491.458,307.165,491.458
			z M398.607,444.055c-1.569,2.218-14.209,2.134-16.95,2.487c-6.413,0.826-12.834,1.589-19.262,2.288
			c-12.856,1.398-25.739,2.542-38.64,3.431c-25.803,1.778-51.675,2.54-77.536,2.283c-44.329-0.441-89.048-3.372-132.825-10.489
			c-11.186-15.812-17.952-33.923-19.875-53.087c0.207,0.039,0.423,0.076,0.631,0.117c49.682,9.549,101.034,13.1,151.58,13.625
			c51.542,0.535,103.126-2.963,154.118-10.498c6.036-0.892,12.179-1.665,18.102-3.145c0.176-0.034,0.361-0.065,0.537-0.1
			C416.564,410.12,409.797,428.237,398.607,444.055z M419.052,372.036c-0.253,0.052-0.503,0.103-0.758,0.154
			c-0.736,0.148-1.473,0.293-2.21,0.438c-48.593,9.514-98.971,13.039-148.424,13.639c-51.356,0.623-102.763-2.886-153.552-10.526
			c-7.099-1.068-14.149-2.29-21.16-3.704v-49.5c0.221,0.043,0.453,0.082,0.674,0.126c49.551,9.587,100.803,13.144,151.227,13.715
			c51.535,0.583,103.119-2.866,154.113-10.349c6.521-0.957,12.925-2.284,19.415-3.366c0.221-0.043,0.453-0.082,0.674-0.126V372.036z
			 M292.337,267.213l9.567,33.093c1.81,6.264,5.182,11.74,9.596,16.101c-0.507,0.027-1.013,0.054-1.52,0.08
			c-18.572,0.956-37.168,1.411-55.765,1.377c-9.43-0.017-18.859-0.161-28.284-0.428c-4.712-0.134-9.424-0.299-14.134-0.495
			c-1.552-0.064-10.184-1.635-11.295-0.534c4.414-4.36,7.786-9.837,9.596-16.101l9.567-33.093c0.753,0.026,1.51,0.047,2.264,0.07
			c0.532,0.017,1.063,0.033,1.595,0.049C246.454,268.02,269.408,267.981,292.337,267.213z M224.956,248.907l3.725-12.888h54.638
			l3.726,12.888c-0.251-0.868-23.619,0.429-25.76,0.441C249.174,249.408,237.063,249.259,224.956,248.907z M484.6,217.56h-56.521
			H83.919H27.401c-4.931,0-8.943-4.012-8.943-8.943c0-4.931,4.012-8.943,8.943-8.943H484.6c4.931,0,8.943,4.012,8.943,8.943
			C493.543,213.549,489.531,217.56,484.6,217.56z"/>
	</g>
</g>
</svg>